<mxfile host="app.diagrams.net" modified="2022-03-27T01:38:25.339Z" agent="5.0 (Macintosh; Intel Mac OS X 10_15_7) AppleWebKit/537.36 (KHTML, like Gecko) Chrome/99.0.4844.51 Safari/537.36" etag="gA42c5NxfSKIRyeEHB3T" version="17.1.3" type="github">
  <diagram id="3228e29e-7158-1315-38df-8450db1d8a1d" name="Page-1">
    <mxGraphModel dx="769" dy="426" grid="0" gridSize="10" guides="1" tooltips="1" connect="1" arrows="1" fold="1" page="1" pageScale="1" pageWidth="700" pageHeight="400" background="#EFF1F3" math="0" shadow="0">
      <root>
        <mxCell id="0" />
        <mxCell id="1" parent="0" />
        <mxCell id="spV6VU4cGSJD96CcmEE0-4" value="&lt;font color=&quot;#ffffff&quot;&gt;&lt;span style=&quot;font-size: 16px&quot;&gt;&lt;br&gt;&lt;/span&gt;&lt;/font&gt;" style="whiteSpace=wrap;html=1;aspect=fixed;rounded=1;strokeColor=none;fillColor=#4A919B;" parent="1" vertex="1">
          <mxGeometry x="25" y="691" width="80" height="80" as="geometry" />
        </mxCell>
        <mxCell id="spV6VU4cGSJD96CcmEE0-6" value="数据" style="rounded=1;whiteSpace=wrap;html=1;fillColor=#9AC7BF;strokeColor=default;fontColor=#000000;align=center;" parent="1" vertex="1">
          <mxGeometry x="48" y="713" width="50" height="17" as="geometry" />
        </mxCell>
        <mxCell id="spV6VU4cGSJD96CcmEE0-12" value="&lt;font color=&quot;#ffffff&quot;&gt;页号100&lt;/font&gt;" style="text;html=1;strokeColor=none;fillColor=none;align=center;verticalAlign=middle;whiteSpace=wrap;rounded=0;dashed=1;fontColor=#535E80;" parent="1" vertex="1">
          <mxGeometry x="37" y="691" width="55" height="22" as="geometry" />
        </mxCell>
        <mxCell id="spV6VU4cGSJD96CcmEE0-21" value="" style="shape=flexArrow;endArrow=classic;html=1;rounded=0;fontColor=#FFFFFF;strokeColor=none;fillColor=#FDD276;" parent="1" edge="1">
          <mxGeometry width="50" height="50" relative="1" as="geometry">
            <mxPoint x="234.14999999999998" y="522" as="sourcePoint" />
            <mxPoint x="202" y="554" as="targetPoint" />
          </mxGeometry>
        </mxCell>
        <mxCell id="spV6VU4cGSJD96CcmEE0-22" value="" style="shape=flexArrow;endArrow=classic;html=1;rounded=0;fontColor=#FFFFFF;strokeColor=none;fillColor=#FDD276;" parent="1" edge="1">
          <mxGeometry width="50" height="50" relative="1" as="geometry">
            <mxPoint x="326" y="522" as="sourcePoint" />
            <mxPoint x="358.85" y="554" as="targetPoint" />
          </mxGeometry>
        </mxCell>
        <mxCell id="BJRcYlKcCAD2B9d3_ZLO-3" value="" style="shape=flexArrow;endArrow=classic;html=1;rounded=0;fontColor=#FFFFFF;strokeColor=none;fillColor=#FDD276;" parent="1" edge="1">
          <mxGeometry width="50" height="50" relative="1" as="geometry">
            <mxPoint x="127.65000000000032" y="646" as="sourcePoint" />
            <mxPoint x="95.5" y="678" as="targetPoint" />
          </mxGeometry>
        </mxCell>
        <mxCell id="BJRcYlKcCAD2B9d3_ZLO-4" value="" style="shape=flexArrow;endArrow=classic;html=1;rounded=0;fontColor=#FFFFFF;strokeColor=none;fillColor=#FDD276;" parent="1" edge="1">
          <mxGeometry width="50" height="50" relative="1" as="geometry">
            <mxPoint x="166.6500000000001" y="646" as="sourcePoint" />
            <mxPoint x="199.49999999999977" y="678" as="targetPoint" />
          </mxGeometry>
        </mxCell>
        <mxCell id="BJRcYlKcCAD2B9d3_ZLO-17" value="" style="shape=flexArrow;endArrow=classic;html=1;rounded=0;fontColor=#FFFFFF;strokeColor=none;fillColor=#FDD276;" parent="1" edge="1">
          <mxGeometry width="50" height="50" relative="1" as="geometry">
            <mxPoint x="390.6500000000003" y="646" as="sourcePoint" />
            <mxPoint x="358.5" y="677.9999999999999" as="targetPoint" />
          </mxGeometry>
        </mxCell>
        <mxCell id="BJRcYlKcCAD2B9d3_ZLO-18" value="" style="shape=flexArrow;endArrow=classic;html=1;rounded=0;fontColor=#FFFFFF;strokeColor=none;fillColor=#FDD276;" parent="1" edge="1">
          <mxGeometry width="50" height="50" relative="1" as="geometry">
            <mxPoint x="429.6500000000003" y="646" as="sourcePoint" />
            <mxPoint x="462.4999999999998" y="677.9999999999999" as="targetPoint" />
          </mxGeometry>
        </mxCell>
        <mxCell id="SSU85J6YOylga-3CZ0uj-2" value="&lt;font&gt;1&lt;/font&gt;" style="rounded=1;whiteSpace=wrap;html=1;fillColor=#9AC7BF;strokeColor=default;fontColor=#000000;" parent="1" vertex="1">
          <mxGeometry x="32.25" y="713" width="15.75" height="17" as="geometry" />
        </mxCell>
        <mxCell id="SSU85J6YOylga-3CZ0uj-3" value="数据" style="rounded=1;whiteSpace=wrap;html=1;fillColor=#9AC7BF;strokeColor=default;fontColor=#000000;align=center;" parent="1" vertex="1">
          <mxGeometry x="48" y="730" width="50" height="17" as="geometry" />
        </mxCell>
        <mxCell id="SSU85J6YOylga-3CZ0uj-4" value="&lt;font&gt;2&lt;/font&gt;" style="rounded=1;whiteSpace=wrap;html=1;fillColor=#9AC7BF;strokeColor=default;fontColor=#000000;" parent="1" vertex="1">
          <mxGeometry x="32.25" y="730" width="15.75" height="17" as="geometry" />
        </mxCell>
        <mxCell id="SSU85J6YOylga-3CZ0uj-8" value="&lt;font color=&quot;#ffffff&quot;&gt;&lt;span style=&quot;font-size: 16px&quot;&gt;&lt;br&gt;&lt;/span&gt;&lt;/font&gt;" style="whiteSpace=wrap;html=1;aspect=fixed;rounded=1;strokeColor=none;fillColor=#4A919B;" parent="1" vertex="1">
          <mxGeometry x="190" y="691" width="80" height="80" as="geometry" />
        </mxCell>
        <mxCell id="SSU85J6YOylga-3CZ0uj-9" value="数据" style="rounded=1;whiteSpace=wrap;html=1;fillColor=#9AC7BF;strokeColor=default;fontColor=#000000;align=center;" parent="1" vertex="1">
          <mxGeometry x="213" y="713" width="50" height="17" as="geometry" />
        </mxCell>
        <mxCell id="SSU85J6YOylga-3CZ0uj-10" value="&lt;font color=&quot;#ffffff&quot;&gt;页号105&lt;/font&gt;" style="text;html=1;strokeColor=none;fillColor=none;align=center;verticalAlign=middle;whiteSpace=wrap;rounded=0;dashed=1;fontColor=#535E80;" parent="1" vertex="1">
          <mxGeometry x="202" y="691" width="55" height="22" as="geometry" />
        </mxCell>
        <mxCell id="SSU85J6YOylga-3CZ0uj-11" value="&lt;font&gt;4&lt;/font&gt;" style="rounded=1;whiteSpace=wrap;html=1;fillColor=#9AC7BF;strokeColor=default;fontColor=#000000;" parent="1" vertex="1">
          <mxGeometry x="197.25" y="713" width="15.75" height="17" as="geometry" />
        </mxCell>
        <mxCell id="SSU85J6YOylga-3CZ0uj-12" value="数据" style="rounded=1;whiteSpace=wrap;html=1;fillColor=#9AC7BF;strokeColor=default;fontColor=#000000;align=center;" parent="1" vertex="1">
          <mxGeometry x="213" y="730" width="50" height="17" as="geometry" />
        </mxCell>
        <mxCell id="SSU85J6YOylga-3CZ0uj-13" value="&lt;font&gt;5&lt;/font&gt;" style="rounded=1;whiteSpace=wrap;html=1;fillColor=#9AC7BF;strokeColor=default;fontColor=#000000;" parent="1" vertex="1">
          <mxGeometry x="197.25" y="730" width="15.75" height="17" as="geometry" />
        </mxCell>
        <mxCell id="SSU85J6YOylga-3CZ0uj-34" value="&lt;font color=&quot;#ffffff&quot;&gt;&lt;span style=&quot;font-size: 16px&quot;&gt;&lt;br&gt;&lt;/span&gt;&lt;/font&gt;" style="whiteSpace=wrap;html=1;aspect=fixed;rounded=1;strokeColor=none;fillColor=#4A919B;" parent="1" vertex="1">
          <mxGeometry x="290" y="691" width="80" height="80" as="geometry" />
        </mxCell>
        <mxCell id="SSU85J6YOylga-3CZ0uj-35" value="数据" style="rounded=1;whiteSpace=wrap;html=1;fillColor=#9AC7BF;strokeColor=default;fontColor=#000000;align=center;" parent="1" vertex="1">
          <mxGeometry x="313" y="713" width="50" height="17" as="geometry" />
        </mxCell>
        <mxCell id="SSU85J6YOylga-3CZ0uj-36" value="&lt;font color=&quot;#ffffff&quot;&gt;页号97&lt;/font&gt;" style="text;html=1;strokeColor=none;fillColor=none;align=center;verticalAlign=middle;whiteSpace=wrap;rounded=0;dashed=1;fontColor=#535E80;" parent="1" vertex="1">
          <mxGeometry x="302" y="691" width="55" height="22" as="geometry" />
        </mxCell>
        <mxCell id="SSU85J6YOylga-3CZ0uj-37" value="&lt;font&gt;7&lt;/font&gt;" style="rounded=1;whiteSpace=wrap;html=1;fillColor=#9AC7BF;strokeColor=default;fontColor=#000000;" parent="1" vertex="1">
          <mxGeometry x="297.25" y="713" width="15.75" height="17" as="geometry" />
        </mxCell>
        <mxCell id="SSU85J6YOylga-3CZ0uj-38" value="数据" style="rounded=1;whiteSpace=wrap;html=1;fillColor=#9AC7BF;strokeColor=default;fontColor=#000000;align=center;" parent="1" vertex="1">
          <mxGeometry x="313" y="730" width="50" height="17" as="geometry" />
        </mxCell>
        <mxCell id="SSU85J6YOylga-3CZ0uj-39" value="&lt;font&gt;8&lt;/font&gt;" style="rounded=1;whiteSpace=wrap;html=1;fillColor=#9AC7BF;strokeColor=default;fontColor=#000000;" parent="1" vertex="1">
          <mxGeometry x="297.25" y="730" width="15.75" height="17" as="geometry" />
        </mxCell>
        <mxCell id="SSU85J6YOylga-3CZ0uj-40" value="数据" style="rounded=1;whiteSpace=wrap;html=1;fillColor=#9AC7BF;strokeColor=default;fontColor=#000000;align=center;" parent="1" vertex="1">
          <mxGeometry x="313" y="747" width="50" height="17" as="geometry" />
        </mxCell>
        <mxCell id="SSU85J6YOylga-3CZ0uj-41" value="&lt;font&gt;9&lt;/font&gt;" style="rounded=1;whiteSpace=wrap;html=1;fillColor=#9AC7BF;strokeColor=default;fontColor=#000000;" parent="1" vertex="1">
          <mxGeometry x="297.25" y="747" width="15.75" height="17" as="geometry" />
        </mxCell>
        <mxCell id="SSU85J6YOylga-3CZ0uj-42" value="&lt;font color=&quot;#ffffff&quot;&gt;&lt;span style=&quot;font-size: 16px&quot;&gt;&lt;br&gt;&lt;/span&gt;&lt;/font&gt;" style="whiteSpace=wrap;html=1;aspect=fixed;rounded=1;strokeColor=none;fillColor=#4A919B;" parent="1" vertex="1">
          <mxGeometry x="455" y="691" width="80" height="80" as="geometry" />
        </mxCell>
        <mxCell id="SSU85J6YOylga-3CZ0uj-44" value="&lt;font color=&quot;#ffffff&quot;&gt;页号80&lt;/font&gt;" style="text;html=1;strokeColor=none;fillColor=none;align=center;verticalAlign=middle;whiteSpace=wrap;rounded=0;dashed=1;fontColor=#535E80;" parent="1" vertex="1">
          <mxGeometry x="467" y="691" width="55" height="22" as="geometry" />
        </mxCell>
        <mxCell id="SSU85J6YOylga-3CZ0uj-46" value="数据" style="rounded=1;whiteSpace=wrap;html=1;fillColor=#9AC7BF;strokeColor=default;fontColor=#000000;align=center;" parent="1" vertex="1">
          <mxGeometry x="479.75" y="713" width="50" height="17" as="geometry" />
        </mxCell>
        <mxCell id="SSU85J6YOylga-3CZ0uj-47" value="&lt;font&gt;11&lt;/font&gt;" style="rounded=1;whiteSpace=wrap;html=1;fillColor=#9AC7BF;strokeColor=default;fontColor=#000000;" parent="1" vertex="1">
          <mxGeometry x="464" y="713" width="15.75" height="17" as="geometry" />
        </mxCell>
        <mxCell id="SSU85J6YOylga-3CZ0uj-48" value="数据" style="rounded=1;whiteSpace=wrap;html=1;fillColor=#9AC7BF;strokeColor=default;fontColor=#000000;align=center;" parent="1" vertex="1">
          <mxGeometry x="479.75" y="730" width="50" height="17" as="geometry" />
        </mxCell>
        <mxCell id="SSU85J6YOylga-3CZ0uj-49" value="&lt;font&gt;12&lt;/font&gt;" style="rounded=1;whiteSpace=wrap;html=1;fillColor=#9AC7BF;strokeColor=default;fontColor=#000000;" parent="1" vertex="1">
          <mxGeometry x="464" y="730" width="15.75" height="17" as="geometry" />
        </mxCell>
        <mxCell id="SSU85J6YOylga-3CZ0uj-50" value="&lt;font color=&quot;#ffffff&quot;&gt;&lt;span style=&quot;font-size: 16px&quot;&gt;&lt;br&gt;&lt;/span&gt;&lt;/font&gt;" style="whiteSpace=wrap;html=1;aspect=fixed;rounded=1;strokeColor=none;fillColor=#67AB9F;" parent="1" vertex="1">
          <mxGeometry x="108" y="554" width="80" height="80" as="geometry" />
        </mxCell>
        <mxCell id="SSU85J6YOylga-3CZ0uj-51" value="数据" style="rounded=1;whiteSpace=wrap;html=1;fillColor=#9AC7BF;strokeColor=default;fontColor=#000000;align=center;" parent="1" vertex="1">
          <mxGeometry x="130.88" y="582" width="50" height="17" as="geometry" />
        </mxCell>
        <mxCell id="SSU85J6YOylga-3CZ0uj-52" value="&lt;font color=&quot;#ffffff&quot;&gt;页号6&lt;/font&gt;" style="text;html=1;strokeColor=none;fillColor=none;align=center;verticalAlign=middle;whiteSpace=wrap;rounded=0;dashed=1;fontColor=#535E80;" parent="1" vertex="1">
          <mxGeometry x="120" y="554" width="55" height="22" as="geometry" />
        </mxCell>
        <mxCell id="SSU85J6YOylga-3CZ0uj-53" value="&lt;font&gt;3&lt;/font&gt;" style="rounded=1;whiteSpace=wrap;html=1;fillColor=#9AC7BF;strokeColor=default;fontColor=#000000;" parent="1" vertex="1">
          <mxGeometry x="115.13" y="582" width="15.75" height="17" as="geometry" />
        </mxCell>
        <mxCell id="SSU85J6YOylga-3CZ0uj-58" value="&lt;font color=&quot;#ffffff&quot;&gt;&lt;span style=&quot;font-size: 16px&quot;&gt;&lt;br&gt;&lt;/span&gt;&lt;/font&gt;" style="whiteSpace=wrap;html=1;aspect=fixed;rounded=1;strokeColor=none;fillColor=#67AB9F;" parent="1" vertex="1">
          <mxGeometry x="372" y="554" width="80" height="80" as="geometry" />
        </mxCell>
        <mxCell id="SSU85J6YOylga-3CZ0uj-60" value="&lt;font color=&quot;#ffffff&quot;&gt;页号20&lt;/font&gt;" style="text;html=1;strokeColor=none;fillColor=none;align=center;verticalAlign=middle;whiteSpace=wrap;rounded=0;dashed=1;fontColor=#535E80;" parent="1" vertex="1">
          <mxGeometry x="384" y="554" width="55" height="22" as="geometry" />
        </mxCell>
        <mxCell id="SSU85J6YOylga-3CZ0uj-62" value="数据" style="rounded=1;whiteSpace=wrap;html=1;fillColor=#9AC7BF;strokeColor=default;fontColor=#000000;align=center;" parent="1" vertex="1">
          <mxGeometry x="394.88" y="582" width="50" height="17" as="geometry" />
        </mxCell>
        <mxCell id="SSU85J6YOylga-3CZ0uj-63" value="&lt;font&gt;10&lt;/font&gt;" style="rounded=1;whiteSpace=wrap;html=1;fillColor=#9AC7BF;strokeColor=default;fontColor=#000000;" parent="1" vertex="1">
          <mxGeometry x="379.13" y="582" width="15.75" height="17" as="geometry" />
        </mxCell>
        <mxCell id="SSU85J6YOylga-3CZ0uj-66" value="&lt;font color=&quot;#ffffff&quot;&gt;&lt;span style=&quot;font-size: 16px&quot;&gt;&lt;br&gt;&lt;/span&gt;&lt;/font&gt;" style="whiteSpace=wrap;html=1;aspect=fixed;rounded=1;strokeColor=none;fillColor=#67AB9F;" parent="1" vertex="1">
          <mxGeometry x="239" y="431" width="80" height="80" as="geometry" />
        </mxCell>
        <mxCell id="SSU85J6YOylga-3CZ0uj-67" value="数据" style="rounded=1;whiteSpace=wrap;html=1;fillColor=#9AC7BF;strokeColor=default;fontColor=#000000;align=center;" parent="1" vertex="1">
          <mxGeometry x="261.88" y="459" width="50" height="17" as="geometry" />
        </mxCell>
        <mxCell id="SSU85J6YOylga-3CZ0uj-68" value="&lt;font color=&quot;#ffffff&quot;&gt;页号30&lt;/font&gt;" style="text;html=1;strokeColor=none;fillColor=none;align=center;verticalAlign=middle;whiteSpace=wrap;rounded=0;dashed=1;fontColor=#535E80;" parent="1" vertex="1">
          <mxGeometry x="251" y="431" width="55" height="22" as="geometry" />
        </mxCell>
        <mxCell id="SSU85J6YOylga-3CZ0uj-69" value="&lt;font&gt;6&lt;/font&gt;" style="rounded=1;whiteSpace=wrap;html=1;fillColor=#9AC7BF;strokeColor=default;fontColor=#000000;" parent="1" vertex="1">
          <mxGeometry x="246.13" y="459" width="15.75" height="17" as="geometry" />
        </mxCell>
        <mxCell id="SSU85J6YOylga-3CZ0uj-74" value="" style="shape=curlyBracket;whiteSpace=wrap;html=1;rounded=1;flipH=1;fontColor=#000000;fillColor=none;fontSize=5;strokeWidth=3;strokeColor=#4A919B;" parent="1" vertex="1">
          <mxGeometry x="566" y="686.5" width="20" height="89" as="geometry" />
        </mxCell>
        <mxCell id="SSU85J6YOylga-3CZ0uj-75" value="叶子结点&lt;br&gt;放数据表行数据" style="text;html=1;strokeColor=none;fillColor=none;align=center;verticalAlign=middle;whiteSpace=wrap;rounded=0;fontColor=#4A919B;" parent="1" vertex="1">
          <mxGeometry x="592.5" y="713" width="92" height="44" as="geometry" />
        </mxCell>
        <mxCell id="SSU85J6YOylga-3CZ0uj-76" value="" style="shape=curlyBracket;whiteSpace=wrap;html=1;rounded=1;flipH=1;fontColor=#000000;fillColor=none;fontSize=5;strokeWidth=3;strokeColor=#67AB9F;" parent="1" vertex="1">
          <mxGeometry x="567" y="424" width="20" height="217" as="geometry" />
        </mxCell>
        <mxCell id="SSU85J6YOylga-3CZ0uj-77" value="非叶子结点&lt;br&gt;也放&lt;br&gt;数据表行数据" style="text;html=1;strokeColor=none;fillColor=none;align=center;verticalAlign=middle;whiteSpace=wrap;rounded=0;fontColor=#67AB9F;" parent="1" vertex="1">
          <mxGeometry x="601.5" y="509.5" width="74" height="44.5" as="geometry" />
        </mxCell>
      </root>
    </mxGraphModel>
  </diagram>
</mxfile>
